<?xml version="1.0" encoding="utf-8"?>
<!-- Generator: Adobe Illustrator 17.1.0, SVG Export Plug-In . SVG Version: 6.00 Build 0)  -->
<!DOCTYPE svg PUBLIC "-//W3C//DTD SVG 1.1//EN" "http://www.w3.org/Graphics/SVG/1.1/DTD/svg11.dtd">
<svg version="1.1" id="Layer_1" xmlns="http://www.w3.org/2000/svg" xmlns:xlink="http://www.w3.org/1999/xlink" x="0px" y="0px"
	 width="300px" height="1984.3px" viewBox="0 0 300 1984.3" enable-background="new 0 0 300 1984.3" xml:space="preserve">
<g>
	<rect x="143.8" y="0.8" fill="#353535" width="6.1" height="23.5"/>
	<path fill="#353535" d="M168.4,21.6c-0.7,0-1.4,0.5-1.4,1.4c0,0.9,0.7,1.4,1.4,1.4c0.7,0,1.4-0.5,1.4-1.4
		C169.8,22.1,169.1,21.6,168.4,21.6z M168.4,24.1L168.4,24.1c-0.5,0-1-0.4-1-1.1c0-0.6,0.4-1.1,1-1.1c0.5,0,1,0.4,1,1.1
		C169.4,23.6,168.9,24.1,168.4,24.1z"/>
	<path fill="#353535" d="M169,22.7c0-0.3-0.2-0.5-0.6-0.5h-0.6v1.5h0.3v-0.6h0.1l0.3,0.6h0.4l-0.4-0.7C168.8,23.1,169,23,169,22.7z
		 M168.4,22.9h-0.3v-0.4h0.2c0.1,0,0.3,0,0.3,0.2C168.7,22.8,168.6,22.9,168.4,22.9z"/>
	<path fill="#353535" d="M101.7,8c0-5-3.5-7.2-8.2-7.2h-9.1v23.6h6.1v-9.1h0.1l6.1,9.1h7.3l-7.4-9.7C99.9,14.1,101.7,11.3,101.7,8z
		 M91.1,11.3h-0.6V5.5h0.6c2,0,4.2,0.4,4.2,2.9C95.4,11,93.1,11.3,91.1,11.3z"/>
	<polygon fill="#353535" points="126.7,6 131.7,6 131.7,24.3 137.8,24.3 137.8,6 142.9,6 142.9,0.8 126.7,0.8 	"/>
	<polygon fill="#353535" points="150.9,24.3 164.2,24.3 164.2,19.1 157,19.1 157,15.1 163.9,15.1 163.9,9.9 157,9.9 157,6 164.2,6 
		164.2,0.8 150.9,0.8 	"/>
	<path fill="#353535" d="M123.6,14.8h-1.3c0,1.4-0.3,2.8-0.8,4l-5.8-7.1c2.4-1.7,5-3.2,5-6.6c0-2.7-2.4-4.2-5.1-4.2
		c-2.5,0-5.1,1.7-5.1,4.2c0,2.5,1.8,4.4,3.3,6.3c-2.8,1.8-6.3,3.6-6.3,7.6c0,4.1,3.2,6.2,7.2,6.2c2.9,0,5.4-1.5,6.9-4l3,3.6h1.7
		l-3.9-4.9C123.1,18.4,123.5,16.6,123.6,14.8z M111.8,5.1c0-1.8,1.9-3.1,3.8-3.1c1.9,0,3.8,1.2,3.8,3.1c0,2.8-2.5,4.4-4.5,5.7
		C113.9,9.1,111.8,7.5,111.8,5.1z M114.7,24.1c-3,0-5.9-1.9-5.9-5.1c0-3.4,3.2-5,5.7-6.7l6.3,7.8C120.8,20.3,118.8,24.1,114.7,24.1z
		"/>
	<path fill="#353535" d="M70.7,0c-6.8,0-13,5-13,12.1c0,2.3,0.5,4.5,1.4,6.3h8.5c-2.1-1.1-3.6-3.4-3.6-6.2c0-3.2,3-6.2,6.6-6.2
		c3.7,0,6.6,3,6.6,6.2c0,4.1-3,7-6.6,7c-0.2,0-0.4,0-0.6,0H47.9L62.3,0.8H38.6V6h12.8L37.9,22.1V0.8h-6L16.6,20.1l-4.1-5.4
		c3.3-0.6,5.1-3.4,5.1-6.6c0-5-3.5-7.2-8.2-7.2H0.3v23.6h6.1v-9.1h0.1l6.1,9.1h0.6h6.7l3.5-4.2h9.2v4.2H36h1.9h35.3
		c1.6,0,3.3-0.5,4.9-1.4c0.1-0.1,0.3-0.1,0.4-0.2c0.2-0.1,0.4-0.3,0.6-0.4c0.2-0.1,0.3-0.3,0.5-0.4c0,0,0.1-0.1,0.1-0.1
		c0.2-0.2,0.4-0.4,0.7-0.7c0.1-0.1,0.3-0.3,0.4-0.5c0,0,0,0,0,0c0,0,0,0,0,0c1.8-2.2,2.9-5.1,2.9-8.5C83.7,5,77.5,0,70.7,0z M7,11.3
		H6.4V5.5H7c2,0,4.2,0.4,4.2,2.9C11.2,11,9,11.3,7,11.3z M32.5,15.5h-5.4l2.7-3.7l2.7-3.4V15.5z"/>
</g>
<g>
	<path fill="#CF3783" d="M0.3,45.8v-10h4.1c1.2,0,2.2,0.3,2.8,0.9c0.7,0.6,1,1.5,1,2.6c0,1.1-0.3,2-1,2.6s-1.6,0.9-2.8,0.9H2.9v3
		H0.3z M2.9,40.7h1.2c0.5,0,0.9-0.1,1.1-0.4c0.2-0.3,0.4-0.6,0.4-1c0-0.4-0.1-0.7-0.4-1s-0.6-0.4-1.1-0.4H2.9V40.7z"/>
	<path fill="#CF3783" d="M9.4,41.5v-5.7H12v6c0,0.6,0.1,1.1,0.4,1.4c0.3,0.3,0.7,0.5,1.3,0.5s1-0.2,1.3-0.5s0.4-0.8,0.4-1.4v-6H18
		v5.7c0,1.4-0.4,2.5-1.1,3.3c-0.8,0.8-1.8,1.2-3.1,1.2c-1.4,0-2.4-0.4-3.1-1.2C9.8,44,9.4,42.9,9.4,41.5z"/>
	<path fill="#CF3783" d="M19.8,45.8v-10h3.4c2.7,0,4,0.9,4,2.8c0,0.3-0.1,0.6-0.2,0.8c-0.1,0.2-0.3,0.4-0.5,0.6
		c-0.2,0.1-0.4,0.2-0.5,0.3s-0.3,0.1-0.5,0.2c1.4,0.4,2.1,1.2,2.1,2.5c0,1.8-1.4,2.8-4.2,2.8H19.8z M22.4,39.7h1.3
		c0.2,0,0.5-0.1,0.7-0.2s0.3-0.4,0.3-0.6c0-0.3-0.1-0.6-0.3-0.7c-0.2-0.2-0.5-0.2-0.8-0.2h-1.2V39.7z M22.4,43.7h1.5c0,0,0,0,0.1,0
		c0.3,0,0.6-0.1,0.9-0.3c0.2-0.2,0.4-0.5,0.4-0.8S25,42,24.7,41.8c-0.3-0.2-0.6-0.3-0.9-0.3h-1.4V43.7z"/>
	<path fill="#CF3783" d="M28.9,45.8v-10h2.6v7.8h4.4v2.2H28.9z"/>
	<path fill="#CF3783" d="M37.3,45.8v-10h2.6v10H37.3z"/>
	<path fill="#CF3783" d="M41.9,43.4c-0.3-0.7-0.4-1.6-0.4-2.6c0-1,0.1-1.9,0.4-2.6c0.3-0.7,0.7-1.2,1.1-1.6c0.5-0.3,1-0.6,1.5-0.7
		c0.5-0.1,1.1-0.2,1.7-0.2c1,0,2,0.2,3.2,0.7v2.2c-1-0.5-2-0.7-3.1-0.7c-0.7,0-1.2,0.2-1.6,0.6C44.2,39,44,39.7,44,40.8
		s0.2,1.9,0.6,2.3c0.4,0.4,1,0.6,1.6,0.6c1,0,2.1-0.2,3.1-0.7v2.2c-1.2,0.5-2.3,0.7-3.2,0.7c-0.6,0-1.2-0.1-1.7-0.2
		c-0.5-0.1-1-0.4-1.5-0.7C42.5,44.6,42.2,44.1,41.9,43.4z"/>
	<path fill="#CF3783" d="M50.7,45.8v-10h2.6v10H50.7z"/>
	<path fill="#CF3783" d="M54.4,38v-2.2h8.4V38h-2.9v7.8h-2.6V38H54.4z"/>
	<path fill="#CF3783" d="M63.3,35.8h3.1l2.1,3.8l2.1-3.8h3.1l-4,5.8v4.2h-2.6v-4.2L63.3,35.8z"/>
</g>
<g>
	<rect x="199.1" y="100.7" fill="#D0D0D0" width="5.1" height="19.6"/>
	<path fill="#D0D0D0" d="M219.6,118c-0.6,0-1.2,0.4-1.2,1.2c0,0.7,0.5,1.2,1.2,1.2c0.6,0,1.2-0.4,1.2-1.2
		C220.8,118.5,220.2,118,219.6,118z M219.6,120.1L219.6,120.1c-0.5,0-0.8-0.4-0.8-0.9c0-0.5,0.4-0.9,0.8-0.9c0.4,0,0.8,0.4,0.8,0.9
		C220.4,119.7,220,120.1,219.6,120.1z"/>
	<path fill="#D0D0D0" d="M220.1,118.9c0-0.3-0.2-0.4-0.5-0.4h-0.5v1.2h0.3v-0.5h0.1l0.3,0.5h0.3l-0.3-0.5
		C220,119.3,220.1,119.2,220.1,118.9z M219.6,119.1h-0.2v-0.3h0.2c0.1,0,0.2,0,0.2,0.1C219.8,119.1,219.8,119.1,219.6,119.1z"/>
	<path fill="#D0D0D0" d="M164,106.7c0-4.2-2.9-6-6.8-6h-7.6v19.7h5.1v-7.6h0.1l5.1,7.6h6.1l-6.2-8.1
		C162.5,111.8,164,109.4,164,106.7z M155.1,109.5h-0.5v-4.9h0.5c1.7,0,3.5,0.3,3.5,2.4C158.7,109.1,156.8,109.5,155.1,109.5z"/>
	<polygon fill="#D0D0D0" points="184.8,105 189,105 189,120.3 194.1,120.3 194.1,105 198.3,105 198.3,100.7 184.8,100.7 	"/>
	<polygon fill="#D0D0D0" points="205,120.3 216.1,120.3 216.1,116 210.1,116 210.1,112.6 215.8,112.6 215.8,108.3 210.1,108.3 
		210.1,105 216.1,105 216.1,100.7 205,100.7 	"/>
	<path fill="#D0D0D0" d="M182.2,112.3h-1.1c0,1.2-0.3,2.3-0.7,3.4l-4.8-5.9c2-1.4,4.2-2.6,4.2-5.5c0-2.3-2-3.5-4.3-3.5
		c-2.1,0-4.3,1.4-4.3,3.5c0,2.1,1.5,3.7,2.8,5.2c-2.3,1.5-5.3,3-5.3,6.4c0,3.4,2.6,5.2,6,5.2c2.4,0,4.5-1.3,5.8-3.3l2.5,3h1.4
		l-3.3-4.1C181.8,115.3,182.1,113.8,182.2,112.3z M172.4,104.3c0-1.5,1.6-2.6,3.2-2.6c1.6,0,3.2,1,3.2,2.6c0,2.3-2.1,3.7-3.7,4.7
		C174.1,107.6,172.4,106.2,172.4,104.3z M174.8,120.1c-2.5,0-4.9-1.6-4.9-4.2c0-2.9,2.7-4.2,4.8-5.6l5.2,6.5
		C179.9,117,178.2,120.1,174.8,120.1z"/>
	<path fill="#D0D0D0" d="M138.1,100c-5.7,0-10.9,4.2-10.9,10.1c0,1.9,0.4,3.7,1.2,5.2h7.1c-1.8-0.9-3-2.9-3-5.2
		c0-2.7,2.5-5.2,5.5-5.2c3,0,5.5,2.5,5.5,5.2c0,3.4-2.5,5.9-5.5,5.9c-0.2,0-0.3,0-0.5,0H119l12.1-15.3h-19.8v4.3h10.6l-11.3,13.5
		v-17.8h-5l-12.8,16.1l-3.4-4.5c2.8-0.5,4.3-2.8,4.3-5.5c0-4.2-2.9-6-6.8-6h-7.6v19.7h5.1v-7.6h0.1l5.1,7.6H90h5.6l2.9-3.5h7.7v3.5
		h2.9h1.6h29.5c1.3,0,2.8-0.4,4.1-1.2c0.1-0.1,0.2-0.1,0.3-0.2c0.2-0.1,0.3-0.2,0.5-0.4c0.1-0.1,0.3-0.2,0.4-0.3
		c0,0,0.1-0.1,0.1-0.1c0.2-0.2,0.4-0.4,0.5-0.5c0.1-0.1,0.2-0.2,0.3-0.4c0,0,0,0,0,0c0,0,0,0,0,0c1.5-1.8,2.4-4.3,2.4-7.1
		C148.9,104.2,143.7,100,138.1,100z M84.8,109.5h-0.5v-4.9h0.5c1.7,0,3.5,0.3,3.5,2.4C88.4,109.1,86.5,109.5,84.8,109.5z M106.2,113
		h-4.5l2.3-3.1l2.3-2.9V113z"/>
</g>
<g>
	<path fill="#333333" d="M299.2,309.9l-4.7,4.7l-4.7-4.7H299.2z"/>
</g>
<g>
	<path fill="#333333" d="M296.1,478.7l-5.6,5.6l-5.6-5.6H296.1z"/>
</g>
<g>
	<path fill="#FFFFFF" d="M157.5,866.2l-7.5,7.5l-7.5-7.5H157.5z"/>
</g>
<g>
	<path fill="#FFFFFF" d="M142.5,803.8l7.5-7.5l7.5,7.5H142.5z"/>
</g>
<g>
	<path fill="#B4B4B4" d="M299.2,249.9l-4.7,4.7l-4.7-4.7H299.2z"/>
</g>
<g>
	<path fill="#333333" d="M154.5,639h-9c-0.6,0-1-0.4-1-1v-1c0-0.6,0.4-1,1-1h9c0.6,0,1,0.4,1,1v1C155.5,638.6,155.1,639,154.5,639z"
		/>
	<path fill="#333333" d="M154.5,644h-9c-0.6,0-1-0.4-1-1v-1c0-0.6,0.4-1,1-1h9c0.6,0,1,0.4,1,1v1C155.5,643.6,155.1,644,154.5,644z"
		/>
	<path fill="#333333" d="M154.5,649h-9c-0.6,0-1-0.4-1-1v-1c0-0.6,0.4-1,1-1h9c0.6,0,1,0.4,1,1v1C155.5,648.6,155.1,649,154.5,649z"
		/>
</g>
<g>
	<path fill="#333333" d="M148.5,682h-4c-0.6,0-1-0.4-1-1v-4c0-0.6,0.4-1,1-1h4c0.6,0,1,0.4,1,1v4C149.5,681.6,149.1,682,148.5,682z"
		/>
	<path fill="#333333" d="M155.5,682h-4c-0.6,0-1-0.4-1-1v-4c0-0.6,0.4-1,1-1h4c0.6,0,1,0.4,1,1v4C156.5,681.6,156.1,682,155.5,682z"
		/>
	<path fill="#333333" d="M148.5,689h-4c-0.6,0-1-0.4-1-1v-4c0-0.6,0.4-1,1-1h4c0.6,0,1,0.4,1,1v4C149.5,688.6,149.1,689,148.5,689z"
		/>
	<path fill="#333333" d="M155.5,689h-4c-0.6,0-1-0.4-1-1v-4c0-0.6,0.4-1,1-1h4c0.6,0,1,0.4,1,1v4C156.5,688.6,156.1,689,155.5,689z"
		/>
</g>
<path id="Facebook" fill="#919191" d="M155.9,991.5h-4v-2.6c0-1,0.7-1.2,1.1-1.2c0.5,0,2.8,0,2.8,0v-4.3l-3.9,0
	c-4.3,0-5.3,3.2-5.3,5.3v2.9h-2.5v4.5h2.5c0,5.7,0,12.6,0,12.6h5.3c0,0,0-7,0-12.6h3.5L155.9,991.5z"/>
<path id="twitter" fill="#919191" d="M162.1,1059.7c-0.9,0.4-1.8,0.7-2.8,0.8c1-0.6,1.8-1.6,2.2-2.7c-1,0.6-2,1-3.1,1.2
	c-0.9-1-2.2-1.6-3.6-1.6c-2.7,0-5,2.2-5,5c0,0.4,0,0.8,0.1,1.1c-4.1-0.2-7.8-2.2-10.2-5.2c-0.4,0.7-0.7,1.6-0.7,2.5
	c0,1.7,0.9,3.2,2.2,4.1c-0.8,0-1.6-0.2-2.2-0.6c0,0,0,0,0,0.1c0,2.4,1.7,4.4,4,4.9c-0.4,0.1-0.9,0.2-1.3,0.2c-0.3,0-0.6,0-0.9-0.1
	c0.6,2,2.5,3.4,4.6,3.4c-1.7,1.3-3.8,2.1-6.2,2.1c-0.4,0-0.8,0-1.2-0.1c2.2,1.4,4.8,2.2,7.6,2.2c9.1,0,14.1-7.6,14.1-14.1
	c0-0.2,0-0.4,0-0.6C160.6,1061.6,161.4,1060.7,162.1,1059.7z"/>
<g id="YouTube">
	<path fill="#919191" d="M158,1139.9h-16c-2.5,0-4.6,2.1-4.6,4.6v3.7c0,2.5,2.1,4.6,4.6,4.6h16c2.5,0,4.6-2.1,4.6-4.6v-3.7
		C162.6,1142,160.5,1139.9,158,1139.9z M145.4,1142.8h-1.5v7.4h-1.4v-7.4H141v-1.3h4.4V1142.8z M149.6,1150.2h-1.3v-0.7
		c-0.2,0.3-0.5,0.5-0.7,0.6c-0.3,0.1-0.5,0.2-0.7,0.2c-0.3,0-0.5-0.1-0.7-0.3c-0.1-0.2-0.2-0.5-0.2-0.9v-5.3h1.3v4.9
		c0,0.2,0,0.3,0.1,0.3c0.1,0.1,0.1,0.1,0.3,0.1c0.1,0,0.2,0,0.4-0.1c0.1-0.1,0.3-0.2,0.4-0.3v-4.8h1.3V1150.2z M154.2,1148.8
		c0,0.5-0.1,0.8-0.3,1c-0.2,0.2-0.5,0.4-0.9,0.4c-0.3,0-0.5,0-0.7-0.1c-0.2-0.1-0.4-0.2-0.5-0.4v0.5h-1.3v-8.6h1.3v2.8
		c0.2-0.2,0.4-0.3,0.5-0.4c0.2-0.1,0.4-0.2,0.6-0.2c0.4,0,0.7,0.1,0.9,0.4c0.2,0.3,0.3,0.7,0.3,1.2V1148.8z M158.6,1147.1h-2.4v1.2
		c0,0.3,0,0.6,0.1,0.7c0.1,0.1,0.2,0.2,0.4,0.2c0.2,0,0.4-0.1,0.4-0.2c0.1-0.1,0.1-0.4,0.1-0.7v-0.3h1.3v0.3c0,0.7-0.2,1.1-0.5,1.5
		c-0.3,0.3-0.8,0.5-1.4,0.5c-0.6,0-1-0.2-1.3-0.5c-0.3-0.3-0.5-0.8-0.5-1.4v-2.9c0-0.6,0.2-1,0.5-1.4c0.4-0.3,0.8-0.5,1.4-0.5
		c0.6,0,1,0.2,1.3,0.5c0.3,0.3,0.5,0.8,0.5,1.4V1147.1z"/>
	<path fill="#919191" d="M156.7,1144.7c-0.2,0-0.3,0.1-0.4,0.2c-0.1,0.1-0.1,0.3-0.1,0.6v0.6h1.1v-0.6c0-0.3,0-0.5-0.1-0.6
		C157.1,1144.8,156.9,1144.7,156.7,1144.7z"/>
	<path fill="#919191" d="M152.3,1144.7c-0.1,0-0.2,0-0.3,0.1c-0.1,0-0.2,0.1-0.3,0.2v4c0.1,0.1,0.2,0.2,0.3,0.2
		c0.1,0,0.2,0.1,0.3,0.1c0.2,0,0.3,0,0.3-0.1c0.1-0.1,0.1-0.2,0.1-0.4v-3.3c0-0.2,0-0.4-0.1-0.5
		C152.6,1144.8,152.5,1144.7,152.3,1144.7z"/>
	<polygon fill="#919191" points="144.1,1137.7 145.7,1137.7 145.7,1133.7 147.6,1128.2 146,1128.2 145,1132 144.9,1132 
		143.8,1128.2 142.2,1128.2 144.1,1133.9 	"/>
	<path fill="#919191" d="M149.8,1137.9c0.7,0,1.2-0.2,1.5-0.5c0.4-0.3,0.6-0.8,0.6-1.4v-3.6c0-0.5-0.2-1-0.6-1.3
		c-0.4-0.3-0.9-0.5-1.5-0.5c-0.7,0-1.2,0.2-1.6,0.5c-0.4,0.3-0.6,0.8-0.6,1.3v3.6c0,0.6,0.2,1.1,0.6,1.4
		C148.7,1137.7,149.2,1137.9,149.8,1137.9z M149.2,1132.2c0-0.2,0.1-0.3,0.2-0.4c0.1-0.1,0.3-0.1,0.4-0.1c0.2,0,0.3,0,0.5,0.1
		c0.1,0.1,0.2,0.2,0.2,0.4v3.8c0,0.2-0.1,0.3-0.2,0.4c-0.1,0.1-0.3,0.2-0.5,0.2c-0.2,0-0.3-0.1-0.4-0.2c-0.1-0.1-0.2-0.3-0.2-0.4
		V1132.2z"/>
	<path fill="#919191" d="M154,1137.8c0.3,0,0.5-0.1,0.8-0.2c0.3-0.1,0.6-0.4,0.8-0.7v0.8h1.4v-7h-1.4v5.3c-0.1,0.2-0.3,0.3-0.4,0.4
		c-0.2,0.1-0.3,0.1-0.4,0.1c-0.1,0-0.2,0-0.3-0.1c-0.1-0.1-0.1-0.2-0.1-0.4v-5.4H153v5.9c0,0.4,0.1,0.7,0.3,0.9
		C153.5,1137.7,153.7,1137.8,154,1137.8z"/>
</g>
<path id="Instagram_2" fill="#919191" d="M156.9,1210.2h-13.8c-2.4,0-4.4,2-4.4,4.4v4.6v9.2c0,2.4,2,4.4,4.4,4.4h13.8
	c2.4,0,4.4-2,4.4-4.4v-9.2v-4.6C161.3,1212.2,159.3,1210.2,156.9,1210.2z M158.2,1212.8l0.5,0v0.5v3.3l-3.8,0l0-3.8L158.2,1212.8z
	 M146.8,1219.2c0.7-1,1.9-1.7,3.2-1.7c1.3,0,2.5,0.7,3.2,1.7c0.5,0.7,0.8,1.5,0.8,2.3c0,2.2-1.8,4-4,4c-2.2,0-4-1.8-4-4
	C146,1220.6,146.3,1219.8,146.8,1219.2z M159.1,1228.4c0,1.2-1,2.2-2.2,2.2h-13.8c-1.2,0-2.2-1-2.2-2.2v-9.2h3.4
	c-0.3,0.7-0.5,1.5-0.5,2.3c0,3.4,2.8,6.2,6.2,6.2c3.4,0,6.2-2.8,6.2-6.2c0-0.8-0.2-1.6-0.5-2.3h3.4V1228.4z"/>
<path id="Facebook_1_" fill="#333333" d="M155.9,1621.5h-4v-2.6c0-1,0.7-1.2,1.1-1.2c0.5,0,2.8,0,2.8,0v-4.3l-3.9,0
	c-4.3,0-5.3,3.2-5.3,5.3v2.9h-2.5v4.5h2.5c0,5.7,0,12.6,0,12.6h5.3c0,0,0-7,0-12.6h3.5L155.9,1621.5z"/>
<path id="twitter_1_" fill="#333333" d="M162.1,1689.7c-0.9,0.4-1.8,0.7-2.8,0.8c1-0.6,1.8-1.6,2.2-2.7c-1,0.6-2,1-3.1,1.2
	c-0.9-1-2.2-1.6-3.6-1.6c-2.7,0-5,2.2-5,5c0,0.4,0,0.8,0.1,1.1c-4.1-0.2-7.8-2.2-10.2-5.2c-0.4,0.7-0.7,1.6-0.7,2.5
	c0,1.7,0.9,3.2,2.2,4.1c-0.8,0-1.6-0.2-2.2-0.6c0,0,0,0,0,0.1c0,2.4,1.7,4.4,4,4.9c-0.4,0.1-0.9,0.2-1.3,0.2c-0.3,0-0.6,0-0.9-0.1
	c0.6,2,2.5,3.4,4.6,3.4c-1.7,1.3-3.8,2.1-6.2,2.1c-0.4,0-0.8,0-1.2-0.1c2.2,1.4,4.8,2.2,7.6,2.2c9.1,0,14.1-7.6,14.1-14.1
	c0-0.2,0-0.4,0-0.6C160.6,1691.6,161.4,1690.7,162.1,1689.7z"/>
<path id="Instagram_2_1_" fill="#333333" d="M156.9,1754.2h-13.8c-2.4,0-4.4,2-4.4,4.4v4.6v9.2c0,2.4,2,4.4,4.4,4.4h13.8
	c2.4,0,4.4-2,4.4-4.4v-9.2v-4.6C161.3,1756.2,159.3,1754.2,156.9,1754.2z M158.2,1756.8l0.5,0v0.5v3.3l-3.8,0l0-3.8L158.2,1756.8z
	 M146.8,1763.2c0.7-1,1.9-1.7,3.2-1.7c1.3,0,2.5,0.7,3.2,1.7c0.5,0.7,0.8,1.5,0.8,2.3c0,2.2-1.8,4-4,4c-2.2,0-4-1.8-4-4
	C146,1764.6,146.3,1763.8,146.8,1763.2z M159.1,1772.4c0,1.2-1,2.2-2.2,2.2h-13.8c-1.2,0-2.2-1-2.2-2.2v-9.2h3.4
	c-0.3,0.7-0.5,1.5-0.5,2.3c0,3.4,2.8,6.2,6.2,6.2c3.4,0,6.2-2.8,6.2-6.2c0-0.8-0.2-1.6-0.5-2.3h3.4V1772.4z"/>
<path id="Apple" fill="#919191" d="M160.5,1305.9c-0.6,1.3-0.8,1.8-1.6,3c-1,1.6-2.5,3.5-4.3,3.5c-1.6,0-2-1-4.2-1
	c-2.2,0-2.6,1-4.2,1c-1.8,0-3.2-1.8-4.2-3.3c-2.9-4.4-3.2-9.5-1.4-12.3c1.3-1.9,3.3-3.1,5.1-3.1c1.9,0,3.1,1,4.7,1
	c1.5,0,2.5-1,4.7-1c1.7,0,3.4,0.9,4.7,2.5C155.7,1298.5,156.3,1304.4,160.5,1305.9z M153.4,1292c0.8-1,1.4-2.5,1.2-4
	c-1.3,0.1-2.8,0.9-3.7,2c-0.8,1-1.5,2.4-1.2,3.9C151.1,1293.9,152.6,1293.1,153.4,1292z"/>
<g id="g_x2B_">
	<path fill="#919191" d="M162,1369.3h-3.8v-3.8c0-0.3-0.2-0.5-0.5-0.5h-1.1c-0.3,0-0.5,0.2-0.5,0.5v3.8h-3.8c-0.3,0-0.5,0.2-0.5,0.5
		v1.1c0,0.3,0.2,0.5,0.5,0.5h3.8v3.8c0,0.3,0.2,0.5,0.5,0.5h1.1c0.3,0,0.5-0.2,0.5-0.5v-3.8l3.8,0c0.3,0,0.5-0.2,0.5-0.5v-1.1
		C162.5,1369.6,162.2,1369.3,162,1369.3z"/>
	<path fill="#919191" d="M149.3,1372.6c-0.8-0.6-1.5-1.4-1.5-1.6c0-0.5,0-0.7,1.1-1.5c1.3-1,2.1-2.4,2.1-3.9c0-1.3-0.4-2.5-1.1-3.3
		h0.5c0.1,0,0.2,0,0.3-0.1l1.5-1.1c0.2-0.1,0.3-0.4,0.2-0.6c-0.1-0.2-0.3-0.4-0.5-0.4h-6.6c-0.7,0-1.5,0.1-2.2,0.4
		c-2.4,0.8-4.1,2.9-4.1,5c0,3,2.3,5.3,5.4,5.3c-0.1,0.2-0.1,0.5-0.1,0.7c0,0.5,0.1,0.9,0.4,1.3c0,0-0.1,0-0.1,0
		c-2.9,0-5.6,1.4-6.6,3.6c-0.3,0.6-0.4,1.1-0.4,1.7c0,0.5,0.1,1.1,0.4,1.6c0.6,1.1,2,2,3.8,2.5c1,0.2,2,0.4,3,0.4
		c1,0,1.9-0.1,2.7-0.4c2.6-0.8,4.3-2.7,4.3-4.9C151.8,1375.2,151.2,1373.9,149.3,1372.6z M141,1377.5c0-1.6,2-2.9,4.2-2.9l0.1,0
		c0.5,0,1,0.1,1.4,0.2c0.2,0.1,0.3,0.2,0.4,0.3c1,0.7,1.7,1.2,1.9,1.9c0,0.2,0.1,0.4,0.1,0.6c0,1.9-1.4,2.9-4.3,2.9
		C142.6,1380.5,141,1379.2,141,1377.5z M143,1362.8c0.4-0.4,0.8-0.6,1.3-0.6l0.1,0c1.5,0,2.9,1.7,3.1,3.6c0.1,1.1-0.1,2.1-0.7,2.8
		c-0.4,0.4-0.8,0.6-1.3,0.6c0,0,0,0,0,0h0c-1.4,0-2.9-1.7-3.1-3.7C142.2,1364.4,142.5,1363.5,143,1362.8z"/>
</g>
<path id="Tumblr_1_" fill="#919191" d="M151,1513.1v5.2h5.2v4H151v5.8c0,1.3,0,2.1,0.1,2.4c0.1,0.4,0.5,0.8,0.9,1
	c0.5,0.3,1.1,0.5,1.7,0.5c1.1,0,2.3-0.4,3.4-1.1v3.6c-1,0.5-1.8,0.8-2.6,1c-0.8,0.2-1.6,0.3-2.5,0.3c-1,0-1.6-0.1-2.4-0.4
	c-0.8-0.3-1.5-0.6-2-1.1c-0.6-0.5-1-1-1.2-1.5c-0.2-0.5-0.3-1.3-0.3-2.4v-7.9h-3.1v-3.2c0.9-0.3,1.9-0.7,2.6-1.2
	c0.6-0.5,1.1-1.2,1.5-1.9c0.4-0.8,0.6-1.7,0.8-2.9H151z"/>
<path fill="#919191" d="M150,1433.8c-6.9,0-12.6,5.6-12.6,12.6c0,6.9,5.6,12.6,12.6,12.6c6.9,0,12.6-5.6,12.6-12.6
	C162.6,1439.4,156.9,1433.8,150,1433.8z M155.1,1452.3c-0.2,0-0.3-0.1-0.5-0.2c-1.8-1.1-4.1-1.7-6.5-1.7c-1.3,0-2.7,0.2-4,0.4
	c-0.2,0-0.5,0.1-0.6,0.1c-0.5,0-0.8-0.4-0.8-0.8c0-0.5,0.3-0.8,0.7-0.9c1.6-0.4,3.1-0.6,4.7-0.6c2.7,0,5.2,0.6,7.3,1.9
	c0.3,0.2,0.5,0.4,0.5,0.8C155.9,1451.9,155.5,1452.3,155.1,1452.3z M156.5,1448.9c-0.3,0-0.4-0.1-0.6-0.2c-2-1.2-4.9-2-8-2
	c-1.6,0-3,0.2-4.1,0.5c-0.2,0.1-0.4,0.1-0.6,0.1c-0.5,0-1-0.4-1-1c0-0.5,0.3-0.9,0.8-1c1.4-0.4,2.9-0.7,5-0.7c3.3,0,6.5,0.8,9,2.3
	c0.4,0.2,0.6,0.5,0.6,1C157.4,1448.5,157,1448.9,156.5,1448.9z M158,1445.1c-0.3,0-0.4-0.1-0.6-0.2c-2.3-1.4-5.8-2.1-9.2-2.1
	c-1.7,0-3.4,0.2-5,0.6c-0.2,0-0.4,0.1-0.6,0.1c-0.7,0-1.2-0.5-1.2-1.2c0-0.7,0.4-1.1,0.9-1.2c1.8-0.5,3.8-0.8,6-0.8
	c3.7,0,7.6,0.8,10.4,2.4c0.4,0.2,0.6,0.5,0.6,1.1C159.2,1444.6,158.7,1445.1,158,1445.1z"/>
<g>
	<path fill="#CF3783" d="M155.3,399.5l-5.3,5.3l-5.3-5.3H155.3z"/>
</g>
<g>
	<path fill="#3A3A3A" d="M152.9,1904.1l-7.9-7.9c-0.5-0.5-0.6-1.2-0.2-1.6l0.7-0.7c0.4-0.4,1.1-0.3,1.6,0.2l7.9,7.9
		c0.5,0.5,0.6,1.2,0.2,1.6l-0.7,0.7C154.1,1904.7,153.3,1904.6,152.9,1904.1z"/>
	<path fill="#3A3A3A" d="M155,1896.3l-7.9,7.8c-0.5,0.5-1.2,0.5-1.6,0.2l-0.7-0.7c-0.4-0.4-0.3-1.1,0.2-1.6l7.9-7.8
		c0.5-0.5,1.2-0.5,1.6-0.2l0.7,0.7C155.6,1895.1,155.5,1895.8,155,1896.3z"/>
</g>
</svg>
